<svg width="32" height="32" viewBox="0 0 32 32" fill="none" xmlns="http://www.w3.org/2000/svg">
<path d="M16.0001 2.6665C8.48008 2.6665 2.66675 8.17317 2.66675 15.5998C2.66675 19.4798 4.25341 22.8532 6.85341 25.1598C7.06675 25.3332 7.20008 25.6265 7.21341 25.9198L7.28008 28.2932C7.33342 29.0532 8.09342 29.5465 8.78675 29.2398L11.4267 28.0798C11.6534 27.9998 11.9067 27.9598 12.1334 27.9998C13.3334 28.3598 14.6667 28.5332 16.0001 28.5332C23.5201 28.5332 29.3334 23.0265 29.3334 15.5998C29.3334 8.17317 23.5201 2.6665 16.0001 2.6665ZM24.0001 12.6132L20.0934 18.8398C19.4667 19.8132 18.1334 20.0665 17.2001 19.3332L14.0801 17.0265C13.8001 16.8132 13.4001 16.8132 13.1201 17.0265L8.90675 20.2265C8.34675 20.6665 7.61341 19.9998 8.00008 19.3865L11.9067 13.1598C12.5334 12.1865 13.8667 11.9332 14.8001 12.6265L17.9201 14.9732C18.2134 15.1865 18.6001 15.1865 18.8801 14.9732L23.0934 11.7732C23.6534 11.3332 24.3867 11.9998 24.0001 12.6132Z" fill="#EFC518"/>
</svg>
