<svg width="24" height="24" viewBox="0 0 24 24" fill="none" xmlns="http://www.w3.org/2000/svg">
<path d="M11.9995 1.99988C6.35951 1.99988 1.99951 6.12988 1.99951 11.6999C1.99951 14.6099 3.18951 17.1399 5.13951 18.8699C5.29951 18.9999 5.39951 19.2199 5.40951 19.4399L5.45951 21.2199C5.49951 21.7899 6.06951 22.1599 6.58951 21.9299L8.56951 21.0599C8.73951 20.9999 8.92951 20.9699 9.09951 20.9999C9.99951 21.2699 10.9995 21.3999 11.9995 21.3999C17.6395 21.3999 21.9995 17.2699 21.9995 11.6999C21.9995 6.12988 17.6395 1.99988 11.9995 1.99988ZM17.9995 9.45988L15.0695 14.1299C14.5995 14.8599 13.5995 15.0499 12.8995 14.4999L10.5595 12.7699C10.3495 12.6099 10.0495 12.6099 9.83951 12.7699L6.67951 15.1699C6.25951 15.4999 5.70951 14.9999 5.99951 14.5399L8.92951 9.86988C9.39951 9.13988 10.3995 8.94988 11.0995 9.46988L13.4395 11.2299C13.6595 11.3899 13.9495 11.3899 14.1595 11.2299L17.3195 8.82988C17.7395 8.49988 18.2895 8.99988 17.9995 9.45988Z" fill="#091213"/>
</svg>
