<svg width="24" height="24" viewBox="0 0 24 24" fill="none" xmlns="http://www.w3.org/2000/svg">
<path d="M11.9995 2.04013C6.49951 2.04013 1.99951 6.53013 1.99951 12.0601C1.99951 17.0601 5.65951 21.2101 10.4395 21.9601V14.9601H7.89951V12.0601H10.4395V9.85013C10.4395 7.34013 11.9295 5.96013 14.2195 5.96013C15.3095 5.96013 16.4495 6.15013 16.4495 6.15013V8.62013H15.1895C13.9495 8.62013 13.5595 9.39013 13.5595 10.1801V12.0601H16.3395L15.8895 14.9601H13.5595V21.9601C15.916 21.588 18.0617 20.3856 19.6094 18.5702C21.1572 16.7547 22.0049 14.4458 21.9995 12.0601C21.9995 6.53013 17.4995 2.04013 11.9995 2.04013Z" fill="#091213"/>
</svg>
