<svg width="24" height="24" viewBox="0 0 24 24" fill="none" xmlns="http://www.w3.org/2000/svg">
<path d="M7.79951 1.99988H16.1995C19.3995 1.99988 21.9995 4.59988 21.9995 7.79988V16.1999C21.9995 17.7381 21.3884 19.2134 20.3007 20.3011C19.213 21.3888 17.7378 21.9999 16.1995 21.9999H7.79951C4.59951 21.9999 1.99951 19.3999 1.99951 16.1999V7.79988C1.99951 6.26162 2.61058 4.78637 3.69829 3.69866C4.786 2.61095 6.26126 1.99988 7.79951 1.99988ZM7.59951 3.99988C6.64473 3.99988 5.72906 4.37916 5.05393 5.05429C4.3788 5.72942 3.99951 6.6451 3.99951 7.59988V16.3999C3.99951 18.3899 5.60951 19.9999 7.59951 19.9999H16.3995C17.3543 19.9999 18.27 19.6206 18.9451 18.9455C19.6202 18.2703 19.9995 17.3547 19.9995 16.3999V7.59988C19.9995 5.60988 18.3895 3.99988 16.3995 3.99988H7.59951ZM17.2495 5.49988C17.581 5.49988 17.899 5.63157 18.1334 5.86599C18.3678 6.10042 18.4995 6.41836 18.4995 6.74988C18.4995 7.0814 18.3678 7.39934 18.1334 7.63376C17.899 7.86818 17.581 7.99988 17.2495 7.99988C16.918 7.99988 16.6001 7.86818 16.3656 7.63376C16.1312 7.39934 15.9995 7.0814 15.9995 6.74988C15.9995 6.41836 16.1312 6.10042 16.3656 5.86599C16.6001 5.63157 16.918 5.49988 17.2495 5.49988ZM11.9995 6.99988C13.3256 6.99988 14.5974 7.52666 15.535 8.46434C16.4727 9.40203 16.9995 10.6738 16.9995 11.9999C16.9995 13.326 16.4727 14.5977 15.535 15.5354C14.5974 16.4731 13.3256 16.9999 11.9995 16.9999C10.6734 16.9999 9.40166 16.4731 8.46398 15.5354C7.5263 14.5977 6.99951 13.326 6.99951 11.9999C6.99951 10.6738 7.5263 9.40203 8.46398 8.46434C9.40166 7.52666 10.6734 6.99988 11.9995 6.99988ZM11.9995 8.99988C11.2039 8.99988 10.4408 9.31595 9.87819 9.87856C9.31558 10.4412 8.99951 11.2042 8.99951 11.9999C8.99951 12.7955 9.31558 13.5586 9.87819 14.1212C10.4408 14.6838 11.2039 14.9999 11.9995 14.9999C12.7952 14.9999 13.5582 14.6838 14.1208 14.1212C14.6834 13.5586 14.9995 12.7955 14.9995 11.9999C14.9995 11.2042 14.6834 10.4412 14.1208 9.87856C13.5582 9.31595 12.7952 8.99988 11.9995 8.99988Z" fill="#091213"/>
</svg>
