<svg width="24" height="24" viewBox="0 0 24 24" fill="none" xmlns="http://www.w3.org/2000/svg">
<path d="M18.9995 2.99994C19.5299 2.99994 20.0387 3.21065 20.4137 3.58573C20.7888 3.9608 20.9995 4.46951 20.9995 4.99994V18.9999C20.9995 19.5304 20.7888 20.0391 20.4137 20.4141C20.0387 20.7892 19.5299 20.9999 18.9995 20.9999H4.99951C4.46908 20.9999 3.96037 20.7892 3.5853 20.4141C3.21023 20.0391 2.99951 19.5304 2.99951 18.9999V4.99994C2.99951 4.46951 3.21023 3.9608 3.5853 3.58573C3.96037 3.21065 4.46908 2.99994 4.99951 2.99994H18.9995ZM18.4995 18.4999V13.1999C18.4995 12.3353 18.156 11.5061 17.5447 10.8948C16.9333 10.2834 16.1041 9.93994 15.2395 9.93994C14.3895 9.93994 13.3995 10.4599 12.9195 11.2399V10.1299H10.1295V18.4999H12.9195V13.5699C12.9195 12.7999 13.5395 12.1699 14.3095 12.1699C14.6808 12.1699 15.0369 12.3174 15.2995 12.58C15.562 12.8425 15.7095 13.1986 15.7095 13.5699V18.4999H18.4995ZM6.87951 8.55994C7.32508 8.55994 7.75239 8.38294 8.06745 8.06788C8.38251 7.75282 8.55951 7.3255 8.55951 6.87994C8.55951 5.94994 7.80951 5.18994 6.87951 5.18994C6.4313 5.18994 6.00144 5.36799 5.6845 5.68493C5.36756 6.00186 5.18951 6.43172 5.18951 6.87994C5.18951 7.80994 5.94951 8.55994 6.87951 8.55994ZM8.26951 18.4999V10.1299H5.49951V18.4999H8.26951Z" fill="#091213"/>
</svg>
