<svg width="24" height="24" viewBox="0 0 24 24" fill="none" xmlns="http://www.w3.org/2000/svg">
<path d="M22.4595 5.99994C21.6895 6.34994 20.8595 6.57994 19.9995 6.68994C20.8795 6.15994 21.5595 5.31994 21.8795 4.30994C21.0495 4.80994 20.1295 5.15994 19.1595 5.35994C18.3695 4.49994 17.2595 3.99994 15.9995 3.99994C13.6495 3.99994 11.7295 5.91994 11.7295 8.28994C11.7295 8.62994 11.7695 8.95994 11.8395 9.26994C8.27955 9.08994 5.10955 7.37994 2.99955 4.78994C2.62955 5.41994 2.41955 6.15994 2.41955 6.93994C2.41955 8.42994 3.16955 9.74994 4.32955 10.4999C3.61955 10.4999 2.95955 10.2999 2.37955 9.99994C2.37955 9.99994 2.37955 9.99994 2.37955 10.0299C2.37955 12.1099 3.85955 13.8499 5.81955 14.2399C5.45955 14.3399 5.07955 14.3899 4.68955 14.3899C4.41955 14.3899 4.14955 14.3599 3.88955 14.3099C4.42955 15.9999 5.99955 17.2599 7.88955 17.2899C6.42955 18.4499 4.57955 19.1299 2.55955 19.1299C2.21955 19.1299 1.87955 19.1099 1.53955 19.0699C3.43955 20.2899 5.69955 20.9999 8.11955 20.9999C15.9995 20.9999 20.3295 14.4599 20.3295 8.78994C20.3295 8.59994 20.3295 8.41994 20.3195 8.22994C21.1595 7.62994 21.8795 6.86994 22.4595 5.99994Z" fill="#091213"/>
</svg>
