<svg width="24" height="24" viewBox="0 0 24 24" fill="none" xmlns="http://www.w3.org/2000/svg">
<path d="M9.99951 15.0001L15.1895 12.0001L9.99951 9.00006V15.0001ZM21.5595 7.17006C21.6895 7.64006 21.7795 8.27006 21.8395 9.07006C21.9095 9.87006 21.9395 10.5601 21.9395 11.1601L21.9995 12.0001C21.9995 14.1901 21.8395 15.8001 21.5595 16.8301C21.3095 17.7301 20.7295 18.3101 19.8295 18.5601C19.3595 18.6901 18.4995 18.7801 17.1795 18.8401C15.8795 18.9101 14.6895 18.9401 13.5895 18.9401L11.9995 19.0001C7.80951 19.0001 5.19951 18.8401 4.16951 18.5601C3.26951 18.3101 2.68951 17.7301 2.43951 16.8301C2.30951 16.3601 2.21951 15.7301 2.15951 14.9301C2.08951 14.1301 2.05951 13.4401 2.05951 12.8401L1.99951 12.0001C1.99951 9.81006 2.15951 8.20006 2.43951 7.17006C2.68951 6.27006 3.26951 5.69006 4.16951 5.44006C4.63951 5.31006 5.49951 5.22006 6.81951 5.16006C8.11951 5.09006 9.30951 5.06006 10.4095 5.06006L11.9995 5.00006C16.1895 5.00006 18.7995 5.16006 19.8295 5.44006C20.7295 5.69006 21.3095 6.27006 21.5595 7.17006Z" fill="#091213"/>
</svg>
